<svg xmlns="http://www.w3.org/2000/svg" viewBox="0 0 88.62 97.84"><defs><style>.cls-1{fill:#ab3c24;}</style></defs><g id="Layer_2" data-name="Layer 2"><g id="Layer_1-2" data-name="Layer 1"><path class="cls-1" d="M.15,2.26c23.2-2.68,50.65-6,70.25,9.68C80.32,19.41,86,30.85,88.62,42.76c-3.6-.34-7.23-.73-10.83-1.15C73.62,29.71,65.39,18.34,53.1,14c-13-4.13-26.84-2.45-40.28-2.68-3.44,13,11.34,18.26,8.62,30.93C14.32,42.3,7.2,42.26.08,42,.27,28.75.5,15.5.15,2.26Z"></path><path class="cls-1" d="M0,55.89c7.16-2.49,14.59-1.07,21.78.31-.34,6.5-.76,14.47-8.5,16.5-.07,4.44-.11,8.84-.15,13.28,16.73-.42,35.83,3.79,50-7.62,7.7-5.24,11.49-14,14.44-22.55,3.6-.26,7.16-.53,10.75-.76C86,68.94,78.48,82.11,65.88,89.12,46.36,101.79,22.24,96.66.38,97.5.46,83.64.54,69.75,0,55.89Z"></path></g></g></svg>